<?xml version="1.0" encoding="UTF-8"?>
<svg id="Camada_2" data-name="Camada 2" xmlns="http://www.w3.org/2000/svg" viewBox="0 0 28.56 28.76">
  <defs>
    <style>
      .cls-1 {
        fill: #1b2e4b;
      }
    </style>
  </defs>
  <g id="Camada_1-2" data-name="Camada 1">
    <path class="cls-1" d="M28,25.54l-5.72-5.72c1.99-2.65,2.95-6.11,2.27-9.79C23.65,5.13,19.71,1.17,14.81.23,6.1-1.43-1.43,6.1.23,14.81c.93,4.86,4.84,8.79,9.7,9.73,3.61.7,7.02-.19,9.66-2.08l5.75,5.75c.37.37.85.55,1.33.55s.96-.18,1.33-.55c.74-.74.74-1.93,0-2.66ZM14.36,20.79c-6.28,1.4-11.78-4.1-10.37-10.37.71-3.16,3.26-5.72,6.43-6.42,6.28-1.4,11.77,4.1,10.37,10.37-.71,3.16-3.26,5.72-6.42,6.43Z"/>
  </g>
</svg>