<?xml version="1.0" encoding="UTF-8"?>
<svg id="Camada_2" data-name="Camada 2" xmlns="http://www.w3.org/2000/svg" viewBox="0 0 642.67 76.42">
  <defs>
    <style>
      .cls-1 {
        fill: #1d1d1b;
      }
    </style>
  </defs>
  <g id="Camada_1-2" data-name="Camada 1">
    <g>
      <path class="cls-1" d="M9.78,76.42H0l2.7-6.29L31.92,2.7l1.24-2.7h5.84l1.24,2.7,29.22,67.43,2.7,6.29h-9.78l-1.24-2.7L36.07,15.85l-25.06,57.88-1.24,2.7Z"/>
      <path class="cls-1" d="M177.6,76.42h-9.44l-16.74-33.71h-22.59v33.71h-8.99v-38.21l.11-33.6V.11h4.5l28.43-.11c5.84,0,10.94,1.8,15.28,5.39,5.24,4.27,7.87,9.63,7.87,16.07,0,2.4-.45,4.76-1.35,7.08-2.1,5.62-8.43,10.87-14.35,13.42l17.27,34.45ZM138.6,33.71h14.38c2.77,0,5.36-.67,7.75-2.02,4.19-2.4,6.29-5.8,6.29-10.23,0-2.55-.83-4.91-2.47-7.08-2.77-3.6-6.67-5.39-11.69-5.39h-24.05v24.84h9.89l-.11-.11Z"/>
      <path class="cls-1" d="M337,0h8.99v67.43h31.47l4.5,8.99h-44.95V0Z"/>
      <path class="cls-1" d="M393.3.11h9.1l-.11,4.5-.11,46.3c0,3.67,1.24,7.01,3.71,10,3.6,4.35,8.35,6.52,14.27,6.52,4.05,0,7.72-1.16,11.01-3.48,4.64-3.3,6.97-7.64,6.97-13.04V4.5l.11-4.38h9.1l-.11,4.5-.11,46.3c0,6.29-2.25,11.91-6.74,16.86-5.39,5.77-12.14,8.65-20.23,8.65-7.04,0-13.19-2.32-18.43-6.97-5.69-5.02-8.54-11.2-8.54-18.54V4.5l.11-4.38Z"/>
      <path class="cls-1" d="M476.35,76.42h-8.99V0h7.42l1.12,2.7,26.3,58.21,26.18-58.21,1.12-2.7h7.42v4.5l.11,67.43v4.5h-8.99v-4.5l-.11-46.53-21.69,48.32-1.12,2.7h-5.84l-1.12-2.7-21.8-48.32v51.02Z"/>
      <path class="cls-1" d="M557.94,0h8.99v76.42h-8.99V0Z"/>
      <path class="cls-1" d="M595.47,76.42h-8.99V0h6.85l1.35,1.91,38.88,55.74.11-53.16V0h8.99v4.5l-.11,67.43v4.5h-6.85l-1.35-1.91-38.88-55.74v57.65Z"/>
      <circle class="cls-1" cx="252.85" cy="36.03" r="16.62"/>
    </g>
  </g>
</svg>